<svg xmlns="http://www.w3.org/2000/svg" width="16" height="16" class="bi bi-cart3">

    <g>
        <title>background</title>
        <rect fill="none" id="canvas_background" height="18" width="18" y="-1" x="-1"/>
    </g>
    <g>
        <title>Layer 1</title>
        <path fill="rgba(232, 232, 232, 0.71)" id="svg_1" d="m0.53068,0.23313l1.59202,0a0.53068,0.52556 0 0 1 0.51476,0.39838l0.42984,1.70387l12.32229,0a0.53068,0.52556 0 0 1 0.52006,0.62857l-1.06135,5.25563a0.53068,0.52556 0 0 1 -0.49353,0.4215l-9.97351,0.49613l0.3046,1.34201l8.88673,-0.07231a0.53068,0.52556 0 0 1 0.22497,1.38859l-9.55216,0a0.53068,0.52556 0 0 1 -0.52112,-0.42886l-1.59096,-8.39323l-0.42455,-1.68915l-1.17809,0a0.53068,0.52556 0 0 1 0,-1.05113a0.53068,0.52556 0 0 1 0,0a0.53068,0.52556 0 0 1 0,0a0.53068,0.52556 0 0 1 0,0a0.53068,0.52556 0 0 1 0,0a0.53068,0.52556 0 0 1 0,0a0.53068,0.52556 0 0 1 0,0a0.53068,0.52556 0 0 1 0,0a0.53068,0.52556 0 0 1 0,0a0.53068,0.52556 0 0 1 0,0a0.53068,0.52556 0 0 1 -0.53068,0.52556m5.30675,11.03681a2.1227,2.10225 0 1 0 0,4.2045a2.1227,2.10225 0 0 0 0,-4.2045zm7.42946,0a2.1227,2.10225 0 1 0 0,4.2045a2.1227,2.10225 0 0 0 0,-4.2045z"/>
    </g>
</svg>