<?xml version="1.0" ?><svg height="512pt" viewBox="0 -26 512 512" width="512pt" xmlns="http://www.w3.org/2000/svg"><path d="m61.628906 171.558594c0 17.703125 9.351563 33.214844 23.386719 41.882812 14.03125-8.667968 23.386719-24.179687 23.386719-41.882812v-24.601563l29.519531-96.953125h-27.09375l-49.199219 96.953125zm0 0" fill="#ff5a5a" fill-rule="evenodd"/><path d="m160.027344 171.558594c0 17.703125 9.355468 33.214844 23.386718 41.878906 14.03125-8.664062 23.386719-24.179688 23.386719-41.878906v-24.601563l9.839844-96.953125h-27.09375l-29.519531 96.953125zm0 0" fill="#ff9d21" fill-rule="evenodd"/><path d="m258.429688 171.558594c0 17.703125 9.351562 33.214844 23.382812 41.878906 14.03125-8.664062 23.386719-24.175781 23.386719-41.878906v-24.601563l-9.839844-96.953125h-27.089844l-9.839843 96.953125zm0 0" fill="#ff5a5a" fill-rule="evenodd"/><path d="m295.359375 50.003906 9.839844 96.953125v24.601563c0 27.171875 22.027343 49.195312 49.199219 49.195312 27.175781 0 49.199218-22.023437 49.199218-49.195312v-24.601563l-29.515625-96.953125zm0 0" fill="#ff9d21" fill-rule="evenodd"/><path d="m374.082031 50.003906 29.519531 96.953125v24.601563c0 27.171875 22.023438 49.195312 49.199219 49.195312s49.199219-22.023437 49.199219-49.195312v-24.601563l-49.203125-96.953125zm0 0" fill="#ff5a5a" fill-rule="evenodd"/><g fill="#ffdaae"><path d="m159.195312 10v40.003906h293.601563v-40.003906zm0 0" fill-rule="evenodd"/><path d="m305.996094 180.351562c-.515625-2.855468-.796875-5.792968-.796875-8.792968 0 26.902344-21.601563 48.75-48.398438 49.175781.265625.003906.527344.019531.796875.019531 24.167969 0 44.253906-17.429687 48.398438-40.402344zm0 0"/><path d="m404.398438 180.339844c-.515626-2.851563-.800782-5.78125-.800782-8.785156 0 26.90625-21.597656 48.75-48.398437 49.179687.265625.003906.53125.019531.796875.019531 24.171875 0 44.257812-17.433594 48.402344-40.414062zm0 0"/><path d="m256 220.753906c.269531 0 .53125-.015625.800781-.019531-26.804687-.425781-48.402343-22.273437-48.402343-49.175781 0 3-.285157 5.9375-.800782 8.792968 4.148438 22.972657 24.230469 40.402344 48.402344 40.402344zm0 0"/><path d="m354.398438 220.753906c.269531 0 .53125-.015625.800781-.019531-26.804688-.425781-48.402344-22.273437-48.402344-49.175781 0 3-.285156 5.9375-.800781 8.792968 4.148437 22.972657 24.234375 40.402344 48.402344 40.402344zm0 0"/><path d="m332.800781 410h80v40.003906h-80zm0 0"/><path d="m404.398438 180.339844c-4.144532 22.980468-24.230469 40.414062-48.402344 40.414062-.265625 0-.53125-.015625-.796875-.019531-.269531.003906-.53125.019531-.800781.019531-24.167969 0-44.253907-17.429687-48.402344-40.402344-4.144532 22.972657-24.230469 40.402344-48.398438 40.402344-.269531 0-.53125-.015625-.796875-.019531-.269531.003906-.53125.019531-.800781.019531-24.171875 0-44.253906-17.429687-48.402344-40.40625-4.144531 22.976563-24.230468 40.40625-48.402344 40.40625v49.25h253.605469v180h40v-229.25c-24.175781 0-44.257812-17.433594-48.402343-40.414062zm0 0"/><path d="m199.195312 410h-40v40.003906h173.605469v-40.003906zm0 0"/></g><path d="m332.800781 270.003906h-154.238281v139.996094h154.238281zm0 0" fill="#96c8eb" fill-rule="evenodd"/><path d="m332.800781 270.003906v180h80v-180zm0 0" fill="#bf9a94" fill-rule="evenodd"/><path d="m510.917969 142.429688-48.121094-94.824219v-37.605469c0-5.523438-4.472656-10-10-10h-393.597656c-5.523438 0-10 4.476562-10 10v37.609375l-48.117188 94.820313c-.710937 1.402343-1.082031 2.953124-1.082031 4.527343v24.601563c0 29.230468 21.304688 53.566406 49.199219 58.335937v210.105469h-10.234375c-5.523438 0-10 4.476562-10 10s4.476562 10 10 10h20.15625c.023437 0 .050781.003906.078125.003906h413.835937c5.519532 0 10-4.476562 10-10 0-5.523437-4.480468-10-10-10h-10.234375v-210.109375c27.894531-4.769531 49.199219-29.105469 49.199219-58.335937v-24.601563c0-1.574219-.371094-3.125-1.082031-4.527343zm-441.71875-122.429688h373.597656v20.003906h-373.597656zm324.402343 151.558594c0 21.613281-17.585937 39.195312-39.203124 39.195312-21.613282 0-39.199219-17.582031-39.199219-39.195312v-24.601563c0-.339843-.015625-.675781-.050781-1.011719l-8.722657-85.941406h60.246094l26.929687 88.441406zm-98.402343 0c0 21.613281-17.585938 39.195312-39.199219 39.195312s-39.199219-17.582031-39.199219-39.195312v-24.097656l8.878907-87.457032h60.644531l8.875 87.457032zm-98.398438-24.601563v24.601563c0 21.613281-17.585937 39.195312-39.199219 39.195312-21.617187 0-39.199218-17.582031-39.199218-39.195312v-23.113282l26.925781-88.441406h60.246094l-8.722657 85.941406c-.035156.335938-.050781.671876-.050781 1.011719zm-176.800781 24.601563v-22.210938l45.339844-89.34375h59.082031l-25.585937 84.039063c-.289063.945312-.4375 1.925781-.4375 2.914062v24.601563c0 21.613281-17.585938 39.195312-39.199219 39.195312s-39.199219-17.582031-39.199219-39.195312zm49.199219 58.335937c16.292969-2.785156 30.339843-12.238281 39.203125-25.457031 10.628906 15.855469 28.714844 26.316406 49.199218 26.316406 20.480469 0 38.5625-10.460937 49.195313-26.316406 10.636719 15.855469 28.71875 26.316406 49.203125 26.316406 20.480469 0 38.566406-10.460937 49.195312-26.316406 10.636719 15.859375 28.71875 26.316406 49.203126 26.316406 20.484374 0 38.566406-10.460937 49.199218-26.316406 8.863282 13.21875 22.90625 22.671875 39.199219 25.457031v210.109375h-20v-170c0-5.523437-4.476563-10-10-10h-313.597656c-5.523438 0-10 4.476563-10 10v139.996094c0 5.523438 4.476562 10 10 10h223.601562v20.003906h-253.601562zm40 147.640625 97.53125-97.53125h34.839843l-19.015624 19.011719c-3.902344 3.902344-3.902344 10.234375 0 14.140625 1.953124 1.953125 4.511718 2.929688 7.070312 2.929688 2.5625 0 5.117188-.976563 7.070312-2.925782l33.160157-33.15625h52.941406v119.996094h-213.597656zm0-28.285156v-69.246094h69.246093zm233.601562 90.753906v-70.003906h10c5.523438 0 10-4.476562 10-10 0-5.519531-4.476562-10-10-10h-10v-69.996094h60v160zm149.199219-268.445312c0 21.613281-17.585938 39.195312-39.199219 39.195312s-39.199219-17.582031-39.199219-39.195312v-24.601563c0-.988281-.148437-1.96875-.433593-2.914062l-25.589844-84.039063h59.082031l45.339844 89.34375zm0 0" fill="#000001"/><path d="m202.261719 319.3125-.167969.164062c-3.917969 3.894532-3.933594 10.226563-.042969 14.144532 1.957031 1.964844 4.523438 2.949218 7.09375 2.949218 2.550781 0 5.097657-.96875 7.050781-2.910156l.167969-.164062c3.914063-3.894532 3.933594-10.226563.039063-14.144532-3.894532-3.914062-10.226563-3.933593-14.140625-.039062zm0 0" fill="#000001"/><path d="m10.234375 440h-.234375c-5.523438 0-10 4.476562-10 10s4.476562 10 10 10h.234375c5.523437 0 10-4.476562 10-10s-4.476563-10-10-10zm0 0" fill="#000001"/><path d="m502 440.003906h-.234375c-5.523437 0-10 4.476563-10 10 0 5.523438 4.476563 10 10 10h.234375c5.523438 0 10-4.476562 10-10 0-5.523437-4.476562-10-10-10zm0 0" fill="#000001"/></svg>